<?xml version="1.0" encoding="UTF-8" standalone="no"?>
<!DOCTYPE svg PUBLIC "-//W3C//DTD SVG 1.1//EN" "http://www.w3.org/Graphics/SVG/1.1/DTD/svg11.dtd">
<svg width="100%" height="100%" viewBox="0 0 130 130" version="1.1" xmlns="http://www.w3.org/2000/svg" xmlns:xlink="http://www.w3.org/1999/xlink" xml:space="preserve" style="fill-rule:evenodd;clip-rule:evenodd;stroke-linecap:round;stroke-linejoin:round;stroke-miterlimit:1.5;">
    <g transform="matrix(1,0,0,1,-185.975,-157.087)">
        <g id="Logo" transform="matrix(0.690606,0,0,1,80.9501,0)">
            <rect x="152.076" y="157.087" width="187.794" height="129.677" style="fill:none;"/>
            <g transform="matrix(1.448,0,0,1,-788.953,49.4162)">
                <g transform="matrix(0.658508,0,0,0.658508,-561.309,-325.351)">
                    <circle cx="1937.45" cy="707.35" r="10.793" style="fill:none;stroke:rgb(0,9,9);stroke-width:6.33px;"/>
                </g>
                <g transform="matrix(0.658508,0,0,0.658508,-584.287,-260.664)">
                    <circle cx="1937.45" cy="707.35" r="10.793" style="fill:none;stroke:rgb(0,9,9);stroke-width:6.33px;"/>
                </g>
                <g transform="matrix(0.658508,0,0,0.658508,-548.763,-293.249)">
                    <circle cx="1937.45" cy="707.35" r="10.793" style="fill:none;stroke:rgb(0,9,9);stroke-width:6.33px;"/>
                </g>
                <g transform="matrix(0.658508,0,0,0.658508,-561.309,-260.664)">
                    <circle cx="1937.45" cy="707.35" r="10.793" style="fill:none;stroke:rgb(0,9,9);stroke-width:6.33px;"/>
                </g>
                <g transform="matrix(0.658508,0,0,0.658508,-537.903,-260.664)">
                    <circle cx="1937.45" cy="707.35" r="10.793" style="fill:none;stroke:rgb(0,9,9);stroke-width:6.33px;"/>
                </g>
                <g transform="matrix(1.10619,0,0,0.968374,-73.7231,6.26327)">
                    <path d="M694.252,198.043L709.873,145.373" style="fill:none;stroke:black;stroke-width:4.01px;"/>
                </g>
                <g transform="matrix(0.937894,0,0,0.977538,43.468,3.70827)">
                    <path d="M719.451,147.259L726.001,165.278" style="fill:none;stroke:black;stroke-width:4.35px;"/>
                </g>
                <g transform="matrix(0.953655,0,0,0.941816,33.8295,10.4981)">
                    <path d="M736.283,198.85L729.956,180.431" style="fill:none;stroke:black;stroke-width:4.4px;"/>
                </g>
                <g transform="matrix(0.920996,0,0,0.929157,56.4634,13.0813)">
                    <path d="M717.302,198.993L724.934,179.084" style="fill:none;stroke:black;stroke-width:4.5px;"/>
                </g>
            </g>
            <g transform="matrix(1.448,0,0,1,-120.211,0.860356)">
                <rect x="200.778" y="167.662" width="104.229" height="108.504" style="fill:none;stroke:black;stroke-width:4.17px;"/>
            </g>
        </g>
    </g>
</svg>
